# xmcd CD database file generated by LOLA_Freedb v0.9beta0
# 
# Track frame offsets:
#      150
#      12688
#      25964
#      39038
#      51052
#      64687
#      77219
#      89608
#      100869
#      114527
# 
# Disc length: 1676 seconds
# 
# Revision: 0 
# Processed by: cddbd v1.5.2PL0 Copyright (c) Steve Scherf et al.
# Submitted via: LOLA_Freedb v0.9beta0
# 
DISCID=7a068a0a
DTITLE=Stamps Quartet - The Famous Stamps Quartet
DYEAR=1962
DGENRE=
TTITLE0=Stamps Quartet - You'll Find It In Paradise
TTITLE1=Stamps Quartet - Somewhere, Someday, Sometime
TTITLE2=Stamps Quartet - Maybe It's You, Maybe It's Me
TTITLE3=Stamps Quartet - Father, Watch Over Thy Child
TTITLE4=Stamps Quartet - Promise You'll Meet Me
TTITLE5=Stamps Quartet - Paradise Is Waiting
TTITLE6=Stamps Quartet - The Love Of God
TTITLE7=Stamps Quartet - The Walls Of Jericho
TTITLE8=Stamps Quartet - Save Thy People, Oh Lord
TTITLE9=Stamps Quartet - Sing
EXTD=
EXTT0=
EXTT1=
EXTT2=
EXTT3=
EXTT4=
EXTT5=
EXTT6=
EXTT7=
EXTT8=
EXTT9=
PLAYORDER=
